<svg id="Livello_1" data-name="Livello 1" xmlns="http://www.w3.org/2000/svg" viewBox="0 0 250 57"><defs><style>.cls-1{fill:#fff;}.cls-1,.cls-2,.cls-3{fill-rule:evenodd;}.cls-2,.cls-4{fill:#f4991a;}.cls-3,.cls-5{fill:#0099cd;}</style></defs><title>portale-sardegna-logo</title><polygon class="cls-1" points="14.88 0.17 14.63 0.16 14.65 0.17 14.88 0.17"/><path class="cls-2" d="M56.66,28.74V9A8.31,8.31,0,0,0,48.34.66H21.4c1.22.69,3.67,2.08,5.25,2.95,11.5,6.35,12,15,12,15l.07,0s8.53-1,16.9,9.44A4.54,4.54,0,0,0,56.66,28.74Z"/><path class="cls-3" d="M24.46,6.32C19.61,3.64,16.53,1.91,14.53.66H8.82A8.31,8.31,0,0,0,.5,9V48.5a8.32,8.32,0,0,0,8.32,8.32H48.34a8.32,8.32,0,0,0,8.32-8.32V34.81c-.69-.85-2.37-2.9-3.3-4.06C45,20.26,36.46,21.3,36.46,21.3l-.05,0S36,12.67,24.46,6.32Z"/><path class="cls-4" d="M76.33,2.12a14.2,14.2,0,0,1,4.37.6,8.15,8.15,0,0,1,3,1.65A6.44,6.44,0,0,1,85.49,6.9a8.63,8.63,0,0,1,.57,3.17,9,9,0,0,1-.59,3.34,7,7,0,0,1-1.8,2.6,8.65,8.65,0,0,1-3,1.69,13.91,13.91,0,0,1-4.3.6H73.1v8.48H68V2.12Zm0,12.27a4.67,4.67,0,0,0,3.5-1.15A4.37,4.37,0,0,0,81,10.07a4.91,4.91,0,0,0-.28-1.67,3.42,3.42,0,0,0-.85-1.29,3.9,3.9,0,0,0-1.44-.83,6.6,6.6,0,0,0-2-.28H73.1v8.39Z"/><path class="cls-4" d="M113.14,14.44a13.78,13.78,0,0,1-.91,5,11.71,11.71,0,0,1-2.57,4,11.84,11.84,0,0,1-4,2.64,14.4,14.4,0,0,1-10.34,0,12,12,0,0,1-4-2.64,11.73,11.73,0,0,1-2.58-4,13.78,13.78,0,0,1-.91-5,13.59,13.59,0,0,1,.91-5,11.73,11.73,0,0,1,2.58-4,12,12,0,0,1,4-2.64,14.4,14.4,0,0,1,10.34,0,11.72,11.72,0,0,1,4,2.65,11.91,11.91,0,0,1,2.57,4A13.62,13.62,0,0,1,113.14,14.44Zm-5.22,0a11,11,0,0,0-.51-3.47,7.35,7.35,0,0,0-1.47-2.62,6.35,6.35,0,0,0-2.33-1.65,8.74,8.74,0,0,0-6.21,0,6.3,6.3,0,0,0-2.34,1.65A7.35,7.35,0,0,0,93.59,11a11,11,0,0,0-.51,3.47,11,11,0,0,0,.51,3.49,7.22,7.22,0,0,0,1.47,2.61,6.28,6.28,0,0,0,2.34,1.64,8.74,8.74,0,0,0,6.21,0,6.32,6.32,0,0,0,2.33-1.64,7.22,7.22,0,0,0,1.47-2.61A11,11,0,0,0,107.92,14.44Z"/><path class="cls-4" d="M136.54,26.78h-4.61a2,2,0,0,1-1.87-1l-4.69-7.56a1.93,1.93,0,0,0-.63-.64,2.06,2.06,0,0,0-1-.21H122v9.4h-5.09V2.12h7.74a15.75,15.75,0,0,1,4.42.54,8.39,8.39,0,0,1,3,1.48,5.72,5.72,0,0,1,1.72,2.27,7.6,7.6,0,0,1,.54,2.9,7.41,7.41,0,0,1-.35,2.32,6.85,6.85,0,0,1-1,2,7,7,0,0,1-1.63,1.59,8.2,8.2,0,0,1-2.21,1.12A5,5,0,0,1,130,17a4.27,4.27,0,0,1,.76.91Zm-11.95-13a6.47,6.47,0,0,0,2.14-.32,4.06,4.06,0,0,0,1.48-.87,3.23,3.23,0,0,0,.85-1.3,4.72,4.72,0,0,0,.27-1.63A3.37,3.37,0,0,0,128.17,7a5.51,5.51,0,0,0-3.55-1H122v7.8Z"/><path class="cls-4" d="M155.83,6.23h-7.21V26.78h-5.11V6.23H136.3V2.12h19.53Z"/><path class="cls-4" d="M178.07,26.78h-4a1.75,1.75,0,0,1-1.08-.31,2,2,0,0,1-.62-.81L170.75,21h-9.83l-1.66,4.71a1.87,1.87,0,0,1-.6.77,1.64,1.64,0,0,1-1.07.35h-4l9.64-24.66h5.21Zm-8.56-9.36-2.67-7.55c-.16-.4-.33-.86-.5-1.39s-.35-1.11-.5-1.74c-.16.64-.33,1.22-.51,1.76s-.34,1-.5,1.4l-2.65,7.52Z"/><path class="cls-4" d="M195,22.63v4.15H180.35V2.12h5.1V22.63Z"/><path class="cls-4" d="M203.22,6.11v6.34h8.23v3.86h-8.23v6.48h10.57v4h-15.7V2.12h15.7v4Z"/><path class="cls-5" d="M81.36,36.64a1.91,1.91,0,0,1-.49.57,1.05,1.05,0,0,1-.64.18,1.55,1.55,0,0,1-.8-.27l-1-.57A11.29,11.29,0,0,0,77.09,36a5.42,5.42,0,0,0-1.75-.26,3.85,3.85,0,0,0-2.65.79,2.66,2.66,0,0,0-.89,2.07,2,2,0,0,0,.49,1.35,4.33,4.33,0,0,0,1.27.92,11.66,11.66,0,0,0,1.8.7c.67.2,1.35.43,2,.67a16.89,16.89,0,0,1,2.06.86,7.06,7.06,0,0,1,1.79,1.24,5.78,5.78,0,0,1,1.28,1.83A6.42,6.42,0,0,1,83,48.77a8.44,8.44,0,0,1-.58,3.15,7.59,7.59,0,0,1-1.7,2.57A7.78,7.78,0,0,1,78,56.22a10.36,10.36,0,0,1-3.68.62A11.6,11.6,0,0,1,72,56.61a12.88,12.88,0,0,1-2.24-.67,11.68,11.68,0,0,1-2-1,8.53,8.53,0,0,1-1.67-1.32l1.5-2.41a1.25,1.25,0,0,1,.49-.45,1.24,1.24,0,0,1,.64-.18,1.73,1.73,0,0,1,1,.34c.34.22.73.47,1.18.74a8.39,8.39,0,0,0,1.53.75,5.78,5.78,0,0,0,2.1.34,4.21,4.21,0,0,0,2.76-.81,3,3,0,0,0,1-2.43A2.31,2.31,0,0,0,77.73,48a4.23,4.23,0,0,0-1.27-1,10.19,10.19,0,0,0-1.78-.67c-.67-.18-1.36-.39-2.06-.62a17.26,17.26,0,0,1-2.06-.81,6.54,6.54,0,0,1-1.78-1.26,6.11,6.11,0,0,1-1.27-1.94A7.52,7.52,0,0,1,67,38.83a6.85,6.85,0,0,1,.54-2.67,6.93,6.93,0,0,1,1.6-2.29,8,8,0,0,1,2.59-1.62,9.67,9.67,0,0,1,3.53-.61,12,12,0,0,1,4.12.69,9.34,9.34,0,0,1,3.2,1.91Z"/><path class="cls-5" d="M107.78,56.57h-4a1.75,1.75,0,0,1-1.08-.31,2,2,0,0,1-.62-.81l-1.66-4.71H90.64L89,55.45a1.92,1.92,0,0,1-.59.77,1.61,1.61,0,0,1-1.08.35h-4L93,31.91h5.21Zm-8.56-9.36-2.67-7.55c-.16-.39-.33-.86-.5-1.39s-.34-1.11-.5-1.73c-.16.63-.33,1.22-.5,1.76s-.35,1-.51,1.4l-2.65,7.51Z"/><path class="cls-5" d="M129.72,56.57h-4.6a2,2,0,0,1-1.87-1L118.56,48a2,2,0,0,0-.64-.64,2,2,0,0,0-1-.21h-1.73v9.4h-5.1V31.91h7.75a15.8,15.8,0,0,1,4.42.54,8.57,8.57,0,0,1,3,1.49A5.67,5.67,0,0,1,127,36.2a7.42,7.42,0,0,1,.55,2.9,7.66,7.66,0,0,1-.35,2.32,6.85,6.85,0,0,1-1,2,7.51,7.51,0,0,1-1.63,1.6,8.66,8.66,0,0,1-2.21,1.12,4.86,4.86,0,0,1,.91.65,4.58,4.58,0,0,1,.77.91Zm-11.94-13a6.51,6.51,0,0,0,2.14-.32,3.91,3.91,0,0,0,1.48-.86,3.54,3.54,0,0,0,.85-1.3,4.76,4.76,0,0,0,.27-1.63,3.32,3.32,0,0,0-1.17-2.72,5.4,5.4,0,0,0-3.54-1h-2.65v7.8Z"/><path class="cls-5" d="M154.25,44.23a13.41,13.41,0,0,1-.91,5,11.33,11.33,0,0,1-2.57,3.9,11.76,11.76,0,0,1-4,2.54,13.87,13.87,0,0,1-5.17.92h-9.48V31.91h9.48a14.07,14.07,0,0,1,5.17.92,11.65,11.65,0,0,1,4,2.56,11.33,11.33,0,0,1,2.57,3.9A13.24,13.24,0,0,1,154.25,44.23Zm-5.24,0a11.07,11.07,0,0,0-.51-3.48A7.49,7.49,0,0,0,147,38.13a6.32,6.32,0,0,0-2.32-1.64,7.82,7.82,0,0,0-3.1-.58h-4.35V52.58h4.35a8,8,0,0,0,3.1-.57A6.23,6.23,0,0,0,147,50.36a7.49,7.49,0,0,0,1.46-2.62A11.22,11.22,0,0,0,149,44.23Z"/><path class="cls-5" d="M163.13,35.91v6.34h8.23V46.1h-8.23v6.48H173.7v4H158V31.91h15.7v4Z"/><path class="cls-5" d="M189,44h8.46V54.19a13.1,13.1,0,0,1-4,2,15.81,15.81,0,0,1-4.51.63,15.22,15.22,0,0,1-5.5-.94,12.4,12.4,0,0,1-4.22-2.62,11.59,11.59,0,0,1-2.7-4,13,13,0,0,1-.95-5.05,13.7,13.7,0,0,1,.91-5.08,11.29,11.29,0,0,1,2.59-4,11.79,11.79,0,0,1,4.07-2.6,14.39,14.39,0,0,1,5.34-.94,15.23,15.23,0,0,1,2.86.25,13.49,13.49,0,0,1,2.45.68,11.55,11.55,0,0,1,2.05,1,11.73,11.73,0,0,1,1.7,1.3l-1.48,2.28a1.33,1.33,0,0,1-.88.66,1.62,1.62,0,0,1-1.19-.27c-.41-.25-.81-.47-1.2-.67a9.36,9.36,0,0,0-1.25-.52,9.51,9.51,0,0,0-1.44-.34,12,12,0,0,0-1.8-.12,7.74,7.74,0,0,0-3.11.6,6.86,6.86,0,0,0-2.38,1.68,7.58,7.58,0,0,0-1.5,2.62,10.47,10.47,0,0,0-.53,3.41,10.88,10.88,0,0,0,.58,3.65A7.73,7.73,0,0,0,183,50.59a6.93,6.93,0,0,0,2.53,1.68,8.77,8.77,0,0,0,3.27.58A8.54,8.54,0,0,0,191,52.6a10,10,0,0,0,1.88-.67V47.79h-2.79a1.06,1.06,0,0,1-.77-.27.86.86,0,0,1-.28-.67Z"/><path class="cls-5" d="M222.75,31.91V56.57h-2.63a2.37,2.37,0,0,1-1-.19,2.64,2.64,0,0,1-.8-.67L206,40.07c0,.4.06.79.07,1.17s0,.75,0,1.07V56.57h-4.5V31.91h2.68a4.22,4.22,0,0,1,.55,0,1.37,1.37,0,0,1,.42.12,1.88,1.88,0,0,1,.36.24c.11.11.23.24.37.41l12.37,15.71c0-.44-.08-.85-.1-1.25s0-.79,0-1.15V31.91Z"/><path class="cls-5" d="M249.5,56.57h-4a1.75,1.75,0,0,1-1.08-.31,1.92,1.92,0,0,1-.62-.81l-1.66-4.71h-9.83l-1.66,4.71a2,2,0,0,1-.6.77,1.59,1.59,0,0,1-1.07.35h-4l9.63-24.66h5.22Zm-8.57-9.36-2.66-7.55c-.16-.39-.33-.86-.5-1.39s-.35-1.11-.51-1.73c-.16.63-.32,1.22-.5,1.76s-.34,1-.5,1.4l-2.65,7.51Z"/></svg>